<svg width="263" height="50" viewBox="0 0 263 50" fill="none" xmlns="http://www.w3.org/2000/svg">
<path d="M2.60059 40V9.97067H14.5815C16.7829 9.97067 18.619 10.2981 20.0899 10.9531C21.5607 11.608 22.6663 12.5171 23.4066 13.6803C24.1468 14.8338 24.517 16.1633 24.517 17.6686C24.517 18.8416 24.2832 19.8729 23.8156 20.7624C23.3481 21.6422 22.7052 22.3656 21.887 22.9325C21.0786 23.4897 20.1532 23.8856 19.1109 24.1202V24.4135C20.2506 24.4623 21.3172 24.7849 22.3107 25.3812C23.314 25.9775 24.1274 26.8133 24.7508 27.8885C25.3742 28.9541 25.6859 30.2248 25.6859 31.7009C25.6859 33.2942 25.2914 34.7164 24.5024 35.9677C23.7231 37.209 22.5688 38.1916 21.0396 38.9148C19.5103 39.6384 17.6255 40 15.3851 40H2.60059ZM8.92711 34.8093H14.0848C15.8478 34.8093 17.1336 34.4723 17.9421 33.7977C18.7505 33.1135 19.1548 32.2043 19.1548 31.0704C19.1548 30.2395 18.9551 29.5063 18.5557 28.871C18.1564 28.2356 17.5865 27.737 16.8462 27.3754C16.1157 27.0137 15.2439 26.8328 14.2309 26.8328H8.92711V34.8093ZM8.92711 22.5366H13.6172C14.4841 22.5366 15.2536 22.3851 15.9258 22.0821C16.6076 21.7693 17.1433 21.3294 17.533 20.7624C17.9323 20.1955 18.132 19.5161 18.132 18.7244C18.132 17.6393 17.7472 16.7644 16.9777 16.0997C16.218 15.435 15.1368 15.1026 13.7341 15.1026H8.92711V22.5366Z" fill="#F6F6F6"/>
<path d="M41.1738 40V9.97067H52.9794C55.2391 9.97067 57.1677 10.3764 58.7653 11.1877C60.3725 11.9893 61.5949 13.1281 62.4326 14.6041C63.2803 16.0704 63.7039 17.7957 63.7039 19.7801C63.7039 21.7742 63.2751 23.4897 62.4181 24.9267C61.5609 26.3539 60.3191 27.4487 58.6923 28.2111C57.0755 28.9736 55.1176 29.3548 52.8186 29.3548H44.9141V24.2522H51.7958C53.0038 24.2522 54.007 24.086 54.8058 23.7537C55.6046 23.4213 56.1986 22.9228 56.5882 22.2581C56.9877 21.5934 57.1873 20.7674 57.1873 19.7801C57.1873 18.783 56.9877 17.9423 56.5882 17.2581C56.1986 16.5738 55.5998 16.0557 54.7913 15.7038C53.9926 15.3421 52.9842 15.1613 51.7666 15.1613H47.5004V40H41.1738ZM57.3336 26.3343L64.7704 40H57.7865L50.5101 26.3343H57.3336Z" fill="#F6F6F6"/>
<path d="M84.5822 40H77.8027L88.1329 9.97067H96.2856L106.601 40H99.8214L92.3261 16.8328H92.0924L84.5822 40ZM84.1586 28.1965H100.172V33.1526H84.1586V28.1965Z" fill="#F6F6F6"/>
<path d="M180.231 9.97067H186.557V29.4721C186.557 31.6618 186.036 33.5777 184.994 35.22C183.962 36.8623 182.515 38.1426 180.655 39.0616C178.794 39.9706 176.627 40.4252 174.153 40.4252C171.669 40.4252 169.497 39.9706 167.636 39.0616C165.776 38.1426 164.329 36.8623 163.297 35.22C162.264 33.5777 161.748 31.6618 161.748 29.4721V9.97067H168.075V28.9296C168.075 30.0733 168.323 31.0899 168.82 31.9795C169.326 32.869 170.037 33.5681 170.953 34.0761C171.869 34.5845 172.935 34.8387 174.153 34.8387C175.38 34.8387 176.447 34.5845 177.353 34.0761C178.268 33.5681 178.974 32.869 179.471 31.9795C179.978 31.0899 180.231 30.0733 180.231 28.9296V9.97067Z" fill="#F6F6F6"/>
<path d="M203.214 40V9.97067H209.54V34.7655H222.369V40H203.214Z" fill="#F6F6F6"/>
<path d="M254.163 18.607C254.046 17.4242 253.544 16.5054 252.658 15.8504C251.772 15.1955 250.569 14.868 249.049 14.868C248.017 14.868 247.145 15.0147 246.434 15.3079C245.723 15.5914 245.177 15.9873 244.797 16.4956C244.427 17.0039 244.242 17.5806 244.242 18.2258C244.223 18.7634 244.335 19.2326 244.578 19.6334C244.831 20.0342 245.177 20.3812 245.615 20.6745C246.054 20.958 246.561 21.2072 247.135 21.4223C247.71 21.6276 248.324 21.8035 248.976 21.9502L251.664 22.5953C252.97 22.8885 254.168 23.2796 255.259 23.7683C256.35 24.2571 257.295 24.8582 258.093 25.5718C258.892 26.2854 259.511 27.1261 259.949 28.0938C260.397 29.0616 260.626 30.1711 260.636 31.4223C260.626 33.26 260.158 34.8532 259.233 36.2022C258.317 37.5416 256.993 38.5826 255.259 39.3255C253.535 40.0587 251.455 40.4252 249.02 40.4252C246.604 40.4252 244.5 40.0539 242.708 39.311C240.925 38.5681 239.533 37.4684 238.529 36.0116C237.536 34.5455 237.015 32.7323 236.966 30.5718H243.088C243.156 31.5787 243.444 32.4193 243.95 33.0939C244.466 33.7587 245.153 34.2619 246.01 34.6042C246.877 34.9364 247.856 35.1026 248.947 35.1026C250.018 35.1026 250.948 34.9461 251.738 34.6335C252.536 34.3206 253.155 33.8855 253.593 33.3284C254.031 32.7713 254.251 32.131 254.251 31.4076C254.251 30.7331 254.051 30.1662 253.651 29.7067C253.262 29.2473 252.687 28.8563 251.928 28.5337C251.177 28.2111 250.257 27.9179 249.166 27.654L245.908 26.8328C243.385 26.217 241.393 25.2542 239.932 23.9443C238.471 22.6344 237.745 20.87 237.755 18.651C237.745 16.8328 238.227 15.2444 239.201 13.8856C240.185 12.5269 241.534 11.4663 243.249 10.7038C244.963 9.94135 246.911 9.56012 249.093 9.56012C251.314 9.56012 253.252 9.94135 254.908 10.7038C256.574 11.4663 257.869 12.5269 258.795 13.8856C259.72 15.2444 260.197 16.8182 260.227 18.607H254.163Z" fill="#F6F6F6"/>
<path fill-rule="evenodd" clip-rule="evenodd" d="M121.206 10.9678L122.342 12.1083L146.761 36.6135L147.897 37.7539L145.624 40.0348L144.488 38.8945L120.069 14.3893L118.933 13.2487L121.206 10.9678ZM118.933 37.7539L120.069 36.6135L144.488 12.1082L145.624 10.9677L147.897 13.2487L146.761 14.3892L122.342 38.8945L121.206 40.0348L118.933 37.7539ZM125.842 15.6206L126.978 16.7611L142.124 31.9606L143.261 33.101L140.988 35.3823L139.851 34.2416L124.705 19.0421L123.569 17.9016L125.842 15.6206ZM123.569 33.101L124.705 31.9606L139.851 16.7611L140.988 15.6206L143.261 17.9016L142.124 19.0421L126.978 34.2416L125.842 35.3819L123.569 33.101ZM131.438 21.2361L132.574 22.3766L136.411 26.2272L137.548 27.3677L135.275 29.6487L134.138 28.5082L130.301 24.6575L129.165 23.5171L131.438 21.2361ZM129.165 27.3677L130.301 26.2272L134.138 22.3765L135.275 21.2361L137.548 23.5171L136.411 24.6575L132.574 28.5082L131.438 29.6487L129.165 27.3677Z" fill="#F6F6F6"/>
</svg>
